<?xml version="1.0" standalone="no"?>
<!DOCTYPE svg PUBLIC "-//W3C//DTD SVG 20010904//EN"
 "http://www.w3.org/TR/2001/REC-SVG-20010904/DTD/svg10.dtd">
<svg version="1.0" xmlns="http://www.w3.org/2000/svg"
 width="700.000000pt" height="700.000000pt" viewBox="0 0 700.000000 700.000000"
 preserveAspectRatio="xMidYMid meet">
<metadata>
Created by potrace 1.11, written by Peter Selinger 2001-2013
</metadata>
<g transform="translate(0.000000,700.000000) scale(0.100000,-0.100000)"
fill="#000000" stroke="none">
<path d="M2985 6129 c-134 -11 -332 -46 -430 -74 -168 -49 -269 -107 -418
-240 -156 -139 -422 -386 -425 -394 -5 -13 253 -317 352 -416 162 -162 332
-269 441 -280 l50 -5 -35 16 c-205 94 -481 342 -662 596 l-59 81 33 35 c149
155 719 506 950 586 l76 26 452 0 c339 0 486 -4 593 -15 167 -19 430 -71 629
-125 78 -22 144 -37 146 -35 2 2 -34 22 -80 44 -154 74 -369 126 -734 177
-163 23 -230 27 -484 29 -162 2 -340 -1 -395 -6z"/>
<path d="M3020 5969 c-126 -11 -281 -36 -355 -56 -245 -66 -476 -231 -734
-525 l-23 -27 93 -89 c175 -166 343 -305 541 -449 l98 -71 65 43 c75 49 190
88 315 106 104 15 609 14 725 -2 234 -31 317 -109 332 -310 8 -108 -1 -143
-50 -196 -101 -110 -275 -195 -669 -328 -174 -60 -319 -115 -382 -147 -224
-116 -365 -259 -439 -448 -47 -119 -56 -198 -57 -467 l0 -243 668 0 669 0 6
208 c3 114 9 215 12 224 4 10 173 85 458 203 416 173 456 191 500 234 146 139
239 333 289 601 25 136 36 514 19 682 -29 297 -96 520 -202 675 -109 157 -303
276 -547 334 -203 49 -242 52 -752 54 -267 2 -528 -1 -580 -6z"/>
<path d="M4746 5920 c6 -8 56 -71 110 -140 175 -221 185 -239 245 -457 29
-106 54 -191 56 -189 3 3 -67 441 -83 519 -4 21 -37 52 -132 125 -172 133
-209 160 -196 142z"/>
<path d="M5212 4587 c-44 -444 -71 -605 -123 -753 -38 -107 -68 -170 -121
-248 l-40 -58 102 78 c57 44 108 88 115 99 7 11 43 130 80 265 l67 245 -1 135
c-2 141 -28 650 -33 655 -2 2 -22 -186 -46 -418z"/>
<path d="M3108 4849 c-153 -24 -468 -103 -456 -114 1 -1 47 -15 101 -29 l99
-27 106 35 c177 58 414 107 637 132 113 13 38 22 -180 22 -137 0 -223 -5 -307
-19z"/>
<path d="M3771 4769 c-34 -4 -68 -10 -73 -11 -8 -3 266 -136 342 -166 8 -3
-23 37 -70 90 -93 105 -85 102 -199 87z"/>
<path d="M3685 4341 c-296 -78 -375 -104 -525 -173 -98 -45 -475 -251 -505
-276 -12 -9 -63 -87 -114 -172 l-93 -155 79 76 c188 182 400 327 666 454 196
94 369 144 550 160 l79 8 81 69 c107 91 104 88 87 87 -8 -1 -145 -36 -305 -78z"/>
<path d="M4761 3546 l-163 -164 -237 -67 -236 -68 -86 -84 -86 -85 -13 -134
c-7 -74 -10 -137 -8 -140 3 -2 46 66 97 153 50 87 95 164 99 171 5 7 93 33
197 56 103 24 193 50 199 57 44 49 406 469 404 469 -2 0 -77 -74 -167 -164z"/>
<path d="M2376 3470 c-38 -53 -41 -60 -28 -60 5 0 14 10 20 23 6 12 21 37 32
55 34 51 16 37 -24 -18z"/>
<path d="M2307 3337 l-38 -58 12 -287 c6 -158 12 -288 13 -290 2 -1 21 32 44
74 l41 75 -17 272 -17 272 -38 -58z"/>
<path d="M2888 2723 c-153 -2 -278 -7 -278 -12 0 -4 86 -14 191 -21 226 -15
471 -8 674 19 l140 19 -225 -1 c-124 -1 -350 -3 -502 -4z"/>
<path d="M3525 2450 c-165 -4 -486 -8 -713 -9 l-412 -1 -113 -75 -112 -76 235
6 c785 19 1209 59 1525 144 l70 19 -90 -1 c-49 0 -225 -4 -390 -7z"/>
<path d="M3950 2357 c-58 -25 -76 -38 -78 -55 -2 -13 4 -125 12 -250 10 -134
16 -359 16 -548 l0 -320 55 -27 c30 -15 55 -26 55 -24 1 8 30 1180 30 1215 0
23 -3 42 -7 41 -5 0 -42 -15 -83 -32z"/>
<path d="M2475 2248 c-3 -7 -4 -263 -3 -568 l3 -555 658 -3 657 -2 0 570 0
570 -655 0 c-515 0 -657 -3 -660 -12z"/>
<path d="M2318 2203 l-68 -47 0 -115 c0 -257 40 -767 76 -953 l16 -87 46 17
47 18 -3 69 c-2 39 -10 138 -19 220 -13 116 -16 237 -14 538 1 213 -1 387 -6
387 -4 0 -38 -21 -75 -47z"/>
<path d="M3040 1030 c-64 -7 -334 -33 -590 -58 l-75 -7 92 -52 c62 -35 104
-53 125 -52 74 1 1332 155 1316 161 -26 10 -785 18 -868 8z"/>
</g>
</svg>
